PathFileType	4	(X/Y/Z)	C:\Users\Basilio\Documents\Thesis Gigler\squatting_fais\c3dfiles\077\SLS_back_pre2\markers_experimental.trc
DataRate	CameraRate	NumFrames	NumMarkers	Units	OrigDataRate	OrigDataStartFrame	OrigNumFrames
200.000000	200.000000	4	60	mm	200.000000	0	1537
Frame#	Time	FHD			RBHD			C7			T10			CLAV			LSHO			LUUPA			LMUPA			LDUPA			LLEP			LMEP			LRAD			LUL			LRFIN			RSHO			RUPA1			RMUPA			RDUPA			RLEP			RMEP			RRAD			RUL			RUFIN			LASI			RASI			USACR			LSACR			RSACR			LTHI1			LTHI2			LTHI3			LTHI4			LLFC			LMFC			LTIB1			LTIB2			LTIB3			LTIB4			LLMAL			LHEE			LMT1			LMT2			LMT5			RTHI			RTHI2			RTHI3			RTHI4			RLFC			RMFC			RTIB1			RTIB2			RTIB3			RTIB4			RLMAL			RMMAL			RHEE			RMT1			RMT2			RMT5			LBHD			
		X1	Y1	Z1	X2	Y2	Z2	X3	Y3	Z3	X4	Y4	Z4	X5	Y5	Z5	X6	Y6	Z6	X7	Y7	Z7	X8	Y8	Z8	X9	Y9	Z9	X10	Y10	Z10	X11	Y11	Z11	X12	Y12	Z12	X13	Y13	Z13	X14	Y14	Z14	X15	Y15	Z15	X16	Y16	Z16	X17	Y17	Z17	X18	Y18	Z18	X19	Y19	Z19	X20	Y20	Z20	X21	Y21	Z21	X22	Y22	Z22	X23	Y23	Z23	X24	Y24	Z24	X25	Y25	Z25	X26	Y26	Z26	X27	Y27	Z27	X28	Y28	Z28	X29	Y29	Z29	X30	Y30	Z30	X31	Y31	Z31	X32	Y32	Z32	X33	Y33	Z33	X34	Y34	Z34	X35	Y35	Z35	X36	Y36	Z36	X37	Y37	Z37	X38	Y38	Z38	X39	Y39	Z39	X40	Y40	Z40	X41	Y41	Z41	X42	Y42	Z42	X43	Y43	Z43	X44	Y44	Z44	X45	Y45	Z45	X46	Y46	Z46	X47	Y47	Z47	X48	Y48	Z48	X49	Y49	Z49	X50	Y50	Z50	X51	Y51	Z51	X52	Y52	Z52	X53	Y53	Z53	X54	Y54	Z54	X55	Y55	Z55	X56	Y56	Z56	X57	Y57	Z57	X58	Y58	Z58	X59	Y59	Z59	X60	Y60	Z60	

1	0	-215.0202026367188	1847.87939453125	-854.2479248046877	-379.6494140625001	1748.509399414063	-806.785095214844	-427.1312866210939	1606.457275390625	-880.6192626953127	-431.4541320800782	1267.793334960938	-873.6973266601565	-263.2963562011719	1553.2783203125	-881.3032226562502	-317.7942199707032	1568.820922851563	-1081.155517578125	-353.1774597167969	1355.156127929688	-1186.177612304688	-311.5282287597657	1329.972290039063	-1181.897827148438	-352.2519531250001	1288.012084960938	-1199.603515625	-337.5805053710938	1222.209228515625	-1205.126708984375	-386.3179016113282	1193.196044921875	-1136.308471679688	-140.2876434326172	1320.287475585938	-1005.563049316406	-111.6473159790039	1244.709228515625	-1008.94189453125	-57.73795700073244	1340.835693359375	-956.4493408203127	-291.8973388671876	1563.167602539063	-683.6287231445314	-335.9837341308594	1362.533325195313	-559.8842773437501	-296.7650146484376	1334.61767578125	-567.1944580078126	-335.0371704101563	1294.317260742188	-543.8657836914064	-317.9921569824219	1228.683715820313	-541.7360229492189	-376.3539733886719	1193.506591796875	-602.8335571289064	-146.5048217773438	1292.506469726563	-774.222839355469	-102.0661544799805	1244.215576171875	-729.4738159179689	-59.1702003479004	1310.328247070313	-814.3811645507815	-236.9132995605469	1064.135131835938	-1012.322631835938	-224.6678161621094	1092.871215820313	-725.1771850585939	-434.9399719238282	1157.400268554688	-868.3112792968752	-440.2971496582032	1126.26171875	-896.174743652344	-440.5945434570314	1125.177368164063	-840.588562011719	-321.4071044921876	860.6134033203127	-1078.178588867188	-302.9234924316407	778.8226318359377	-1079.862060546875	-254.3665313720704	774.6399536132815	-1071.972778320313	-338.8365783691407	730.5895385742189	-1068.607299804688	-329.8879089355469	581.9819335937501	-1052.26416015625	-320.2023620605469	546.4368286132814	-924.0330810546877	-292.1343383789063	359.5899658203126	-1017.12060546875	-326.4994812011719	323.3351440429688	-1092.092407226563	-293.4255981445313	318.0839843750001	-1059.901245117188	-292.4100036621094	236.7258605957032	-1039.811157226563	-346.6216735839844	117.2042388916016	-1093.086669921875	-398.5760803222657	83.04692840576173	-1044.788940429688	-189.3922424316407	57.22774124145509	-1022.947509765625	-182.7680358886719	57.18294143676759	-1065.088256835938	-314.9005126953126	124.6254272460938	-1009.949768066406	-359.9645385742188	763.6108398437501	-684.8453369140626	-333.6246643066407	703.8312988281251	-684.0841064453126	-299.9645385742188	700.0306396484376	-686.5021362304689	-372.0903015136719	633.7056884765626	-701.4593505859376	-380.0412292480469	563.0523681640626	-705.0739746093751	-340.6804809570313	545.0841674804689	-830.9429931640627	-324.8388977050782	428.6638488769532	-716.4631347656251	-385.7197875976564	345.4624023437501	-686.8489379882814	-340.7057495117188	343.7613830566407	-704.1161499023439	-329.5908813476563	299.7349243164063	-742.0122680664064	-388.1311950683595	117.7882690429688	-706.5189819335939	-351.9386596679688	124.9246063232422	-792.324890136719	-441.8859252929689	89.02804565429689	-764.8020629882814	-219.334945678711	61.75220108032228	-739.8712768554689	-227.8553619384766	61.336727142334	-703.1381835937501	-249.7340850830079	44.15830993652344	-656.1076049804689	nan	nan	nan	
2	0.005	-214.9694824218751	1847.845581054688	-854.0518188476565	-379.6544189453126	1748.51171875	-806.7750244140627	-427.1093139648439	1606.490356445313	-880.6329345703127	-431.445526123047	1267.768432617188	-873.7288208007815	-263.2306823730469	1553.303466796875	-881.2316894531252	-317.5802917480469	1568.843627929688	-1081.142456054688	-352.8021850585938	1355.332397460938	-1186.239990234375	-311.1882934570313	1330.072998046875	-1181.939086914063	-351.8919372558594	1288.136962890625	-1199.722534179688	-337.2359619140626	1222.350463867188	-1205.283203125	-386.0888977050782	1193.24658203125	-1136.491088867188	-140.1879577636719	1320.457275390625	-1005.554321289063	-111.5384063720703	1244.86962890625	-1008.851806640625	-57.67496490478517	1341.078857421875	-956.4355468750002	-291.9630126953126	1563.192749023438	-683.5993652343751	-336.0624084472657	1362.571533203125	-559.8241577148439	-296.8410949707032	1334.62939453125	-567.1535034179689	-335.0673828125001	1294.3515625	-543.7813720703126	-318.0689697265626	1228.724975585938	-541.6853027343751	-376.3673400878907	1193.502685546875	-602.7763671875001	-146.6148376464844	1292.63818359375	-774.1049804687502	-102.1120986938477	1244.3115234375	-729.4185180664064	-59.28342056274415	1310.694458007813	-814.1068115234377	-236.8697509765626	1064.06689453125	-1012.219360351563	-224.738998413086	1092.87353515625	-725.0996093750001	-434.934051513672	1157.435180664063	-868.3609008789065	-440.3169860839845	1126.307006835938	-896.1644287109377	-440.603729248047	1125.199829101563	-840.6188964843752	-321.3738403320313	860.6157836914065	-1078.128295898438	-302.8773803710938	778.8345947265627	-1079.86767578125	-254.2821197509766	774.638366699219	-1071.9189453125	-338.7633056640626	730.5826416015626	-1068.572021484375	-329.8756408691407	581.9838256835939	-1052.2314453125	-320.2267150878907	546.4374389648439	-924.0124511718752	-292.1144104003907	359.5743408203126	-1017.098876953125	-326.4710693359376	323.3287658691407	-1092.097534179688	-293.4476318359376	318.0731506347657	-1059.847778320313	-292.3977661132813	236.7522888183594	-1039.797607421875	-346.5995483398438	117.1492385864258	-1093.081420898438	-398.5759887695314	83.00502014160158	-1044.841674804688	-189.4004974365235	57.2268409729004	-1022.952270507813	-182.8200073242188	57.17712402343751	-1065.079467773438	-314.9104309082032	124.616195678711	-1009.940490722656	-360.0415344238282	763.6208496093751	-684.8941040039064	-333.7046508789063	703.8237915039064	-684.0555419921876	-300.0451354980469	700.0292968750001	-686.4602661132814	-372.1336364746094	633.7120971679689	-701.4571533203126	-380.1105957031251	563.0480346679689	-705.0734863281251	-340.7239379882813	545.0941162109376	-830.8963623046877	-324.8754577636719	428.6307067871095	-716.5031738281251	-385.7411499023439	345.4674377441407	-686.8503417968751	-340.7744140625001	343.7590026855469	-704.1301879882814	-329.5759277343751	299.7535095214844	-741.9650268554689	-388.1271057128907	117.7871551513672	-706.5279541015626	-351.9244995117188	124.909782409668	-792.328796386719	-441.8549804687501	89.01904296875001	-764.7924804687501	-219.4127502441407	61.69652938842775	-739.9185180664064	-227.8577728271485	61.33875274658205	-703.1077270507814	-249.7628936767579	44.17409133911134	-656.1000366210939	nan	nan	nan	
3	0.01	-214.9596252441407	1847.814453125	-853.819763183594	-379.6690063476563	1748.5048828125	-806.7522583007815	-427.0614624023439	1606.497436523438	-880.678649902344	-431.4515686035157	1267.805419921875	-873.8020629882815	-263.1994934082032	1553.320556640625	-881.1953735351565	-317.3920288085938	1568.88232421875	-1081.1298828125	-352.4566345214844	1355.44287109375	-1186.360595703125	-310.8632202148438	1330.166259765625	-1181.995483398438	-351.5856018066407	1288.2548828125	-1199.832641601563	-336.9638061523438	1222.478515625	-1205.437866210938	-385.8827514648439	1193.323486328125	-1136.643432617188	-140.029525756836	1320.611206054688	-1005.588134765625	-111.4616012573242	1244.995727539063	-1008.808898925781	-57.51615142822267	1341.305908203125	-956.436462402344	-292.0567321777344	1563.221923828125	-683.5524902343751	-336.1071777343751	1362.561767578125	-559.7683105468751	-296.8458251953126	1334.695922851563	-567.1498413085939	-335.1060485839844	1294.393676757813	-543.6890258789064	-318.0834655761719	1228.766723632813	-541.5963745117189	-376.4473876953126	1193.551513671875	-602.6717529296876	-146.6424560546875	1292.7919921875	-773.9368896484377	-102.1454467773438	1244.36572265625	-729.4031982421876	-59.38023376464845	1311.078857421875	-813.7928466796877	-236.8251190185547	1064.078979492188	-1012.117553710938	-224.8225402832032	1092.89453125	-725.0388183593751	-434.9393310546876	1157.420288085938	-868.412536621094	-440.3016357421876	1126.314697265625	-896.258239746094	-440.6510620117189	1125.246337890625	-840.6624145507815	-321.3358764648438	860.675964355469	-1078.125854492188	-302.8469543457032	778.8389892578127	-1079.804443359375	-254.2577667236329	774.649597167969	-1071.896240234375	-338.7684936523438	730.1605834960939	-1068.477783203125	-329.8423156738282	582.0030517578126	-1052.24169921875	-320.2703552246094	546.4505004882814	-923.9584960937502	-292.1322021484376	359.5473327636719	-1017.082702636719	-326.4496459960938	323.3522338867188	-1092.040893554688	-293.4660034179688	318.0455627441407	-1059.779052734375	-292.4100646972657	236.7259521484376	-1039.811157226563	-346.6426696777344	117.1734313964844	-1093.090576171875	-398.5769653320314	83.02595520019533	-1044.788940429688	-189.4107513427735	57.22891235351564	-1022.963684082031	-182.8146362304688	57.17597579956056	-1065.093627929688	-314.9439392089844	124.6113357543946	-1009.940185546875	-360.1442260742188	763.6141357421876	-684.8784790039064	-333.8038940429688	703.8399658203126	-684.0278930664064	-300.1544189453126	700.0347290039064	-686.3874511718751	-372.2084655761719	633.7141723632814	-701.4701538085939	-380.1798400878907	563.0546875000001	-705.0586547851564	-340.6917419433594	545.0715942382814	-830.8773193359377	-324.9140319824219	428.6702880859376	-716.4595947265626	-385.7806396484376	345.4774475097657	-686.8690795898439	-340.7940979003907	343.8060607910157	-704.0955810546876	-329.6345825195313	299.7683410644532	-741.9250488281251	-388.1614685058595	117.7899398803711	-706.5066528320314	-351.9455871582032	124.9150085449219	-792.3054199218752	-441.8800354003907	89.01483154296876	-764.8078613281251	-219.3377990722657	61.75419998168947	-739.8928222656251	-227.8939971923829	61.35010147094728	-703.0859985351564	-249.7613525390626	44.13429260253907	-656.1044311523439	nan	nan	nan	
4	0.015	-214.9405212402344	1847.826416015625	-853.7120361328127	-379.7210693359376	1748.51220703125	-806.765319824219	-427.0241088867189	1606.490844726563	-880.7584228515627	-431.4097290039064	1267.795043945313	-873.810241699219	-263.1737670898438	1553.339111328125	-881.1683349609377	-317.1641235351563	1568.933959960938	-1081.092895507813	-352.1489257812501	1355.577758789063	-1186.381225585938	-310.5410461425782	1330.224731445313	-1182.064819335938	-351.2597961425782	1288.342163085938	-1199.915283203125	-336.6535034179688	1222.573608398438	-1205.59130859375	-385.6943969726564	1193.432739257813	-1136.899658203125	-139.9935760498047	1320.722778320313	-1005.60693359375	-111.3759536743164	1245.135131835938	-1008.743469238281	-57.52085113525392	1341.570068359375	-956.4346923828127	-292.0928344726563	1563.231811523438	-683.4828491210939	-336.1148071289063	1362.624145507813	-559.7009887695314	-296.8752441406251	1334.698364257813	-567.0360107421876	-335.1628723144532	1294.404663085938	-543.6306152343751	-318.1134643554688	1228.783813476563	-541.5064086914064	-376.4684143066407	1193.56640625	-602.6122436523439	-146.6854705810547	1292.933227539063	-773.8059692382815	-102.2402877807617	1244.364135742188	-729.3679809570314	-59.40073776245119	1311.416015625	-813.466247558594	-236.7826385498047	1064.095947265625	-1012.039367675781	-224.8988647460938	1092.89013671875	-725.0002441406251	-434.8955383300782	1157.501708984375	-868.461853027344	-440.3210754394532	1126.352905273438	-896.3425292968752	-440.6670532226564	1125.282470703125	-840.7012939453127	-321.2937927246094	860.6481933593752	-1078.115844726563	-302.7933959960938	778.8079833984377	-1079.754516601563	-254.2304382324219	774.6555786132815	-1071.853637695313	-338.7067871093751	730.1353149414064	-1068.4697265625	-329.7653808593751	581.9921875000001	-1052.250732421875	-320.2836303710938	546.4318847656251	-923.9815673828127	-292.1194152832032	359.5719909667969	-1017.084350585938	-326.4668273925782	323.3628540039063	-1092.079467773438	-293.3259582519532	318.1559143066407	-1059.830932617188	-292.3773498535157	236.760238647461	-1039.7666015625	-346.6413879394532	117.1940155029297	-1093.084106445313	-398.5504760742189	83.05448150634767	-1044.798706054688	-189.4238433837891	57.23379516601564	-1022.937133789063	-182.8027038574219	57.16255950927736	-1065.122680664063	-314.9262695312501	124.6180114746094	-1009.925354003906	-360.2180175781251	763.6442871093751	-684.9169311523439	-333.8871459960938	703.8341064453126	-684.0101318359376	-300.2058105468751	700.0258178710939	-686.3977661132814	-372.2751464843751	633.7174682617189	-701.4496459960939	-380.2303161621094	563.0525512695314	-705.0385131835939	-340.7653198242188	545.0862426757814	-830.9047851562502	-324.9371032714844	428.6609191894532	-716.4472656250001	-385.8259582519532	345.4855651855469	-686.9167480468751	-340.8196716308594	343.7768554687501	-704.1093750000001	-329.6570129394532	299.7665710449219	-741.9315185546876	-388.206512451172	117.7774429321289	-706.5125122070314	-351.8999328613282	124.9119873046875	-792.2901611328127	-441.8916625976564	89.00260162353517	-764.8108520507814	-219.4030914306641	61.70013809204103	-739.9094238281251	-227.8615722656251	61.31679153442384	-703.1559448242189	-249.7576141357422	44.17030334472657	-656.1123046875001	nan	nan	nan	
